<svg viewBox="0 0 128 128" fill="currentColor" xmlns="http://www.w3.org/2000/svg">
<path d="M64 14.6666C36.7539 14.6666 14.6666 36.7539 14.6666 64C14.6666 91.246 36.7539 113.333 64 113.333C91.246 113.333 113.333 91.246 113.333 64C113.333 36.7539 91.246 14.6666 64 14.6666ZM6.66663 64C6.66663 32.3356 32.3356 6.66663 64 6.66663C95.6643 6.66663 121.333 32.3356 121.333 64C121.333 95.6643 95.6643 121.333 64 121.333C32.3356 121.333 6.66663 95.6643 6.66663 64Z" />
<path d="M64 38.6666C66.2091 38.6666 68 40.4575 68 42.6666V64C68 66.2091 66.2091 68 64 68C61.7909 68 60 66.2091 60 64V42.6666C60 40.4575 61.7909 38.6666 64 38.6666Z" />
<path d="M60 85.3334C60 83.1242 61.7909 81.3334 64 81.3334H64.0533C66.2625 81.3334 68.0533 83.1242 68.0533 85.3334C68.0533 87.5425 66.2625 89.3334 64.0533 89.3334H64C61.7909 89.3334 60 87.5425 60 85.3334Z" />
</svg>
