<svg viewBox="0 0 128 128" fill="currentColor" xmlns="http://www.w3.org/2000/svg">
<path d="M7.03821 14.3165C7.69364 12.9038 9.10938 12 10.6667 12H117.333C118.891 12 120.306 12.9038 120.962 14.3165C121.617 15.7291 121.393 17.3938 120.388 18.5829L78.6667 67.9179V112C78.6667 113.386 77.9489 114.674 76.7696 115.403C75.5903 116.131 74.1178 116.198 72.8778 115.578L51.5445 104.911C50.1894 104.233 49.3333 102.848 49.3333 101.333V67.9179L7.6124 18.5829C6.60681 17.3938 6.38278 15.7291 7.03821 14.3165ZM19.2879 20L56.3876 63.8704C56.9983 64.5925 57.3333 65.5076 57.3333 66.4533V98.8612L70.6667 105.528V66.4533C70.6667 65.5076 71.0017 64.5925 71.6124 63.8704L108.712 20H19.2879Z" />
</svg>
