<svg viewBox="0 0 128 128" fill="currentColor" xmlns="http://www.w3.org/2000/svg">
<path d="M24.5145 9.61939C28.3713 8.07665 34.2158 6.66663 42.6667 6.66663C51.4397 6.66663 58.7186 9.57873 65.253 12.193L65.4856 12.2861C72.2247 14.9817 78.2106 17.3333 85.3334 17.3333C92.8825 17.3333 97.7047 16.0766 100.514 14.9527C101.923 14.3893 102.844 13.8522 103.365 13.5051C103.626 13.3311 103.788 13.2032 103.863 13.1414C103.883 13.1256 103.896 13.114 103.904 13.1071C105.048 12.0149 106.731 11.6971 108.197 12.3044C109.692 12.9236 110.667 14.3821 110.667 16V80C110.667 81.0608 110.245 82.0782 109.495 82.8284L106.667 80C109.495 82.8284 109.493 82.8305 109.491 82.8326L109.487 82.8369L109.478 82.8459L109.458 82.8653L109.412 82.9097C109.378 82.9417 109.339 82.9784 109.294 83.0196C109.203 83.102 109.089 83.202 108.949 83.3168C108.67 83.5467 108.291 83.8355 107.802 84.1615C106.823 84.8144 105.41 85.6106 103.486 86.3805C99.6288 87.9233 93.7842 89.3333 85.3334 89.3333C76.5604 89.3333 69.2815 86.4212 62.7471 83.8069L62.5145 83.7139C55.7754 81.0182 49.7895 78.6666 42.6667 78.6666C35.1176 78.6666 30.2954 79.9233 27.4856 81.0472C26.0772 81.6106 25.1561 82.1478 24.6355 82.4948C24.3745 82.6688 24.2117 82.7967 24.1366 82.8585C24.1174 82.8743 24.1039 82.8859 24.0959 82.8928C22.9524 83.985 21.2689 84.3028 19.8026 83.6955C18.3079 83.0764 17.3334 81.6178 17.3334 80V16C17.3334 14.9391 17.7548 13.9217 18.5049 13.1715L21.3334 16C18.5049 13.1715 18.507 13.1694 18.5092 13.1673L18.5135 13.163L18.5226 13.154L18.5423 13.1346L18.5883 13.0902C18.6219 13.0582 18.6612 13.0215 18.7065 12.9803C18.7971 12.8979 18.9115 12.7979 19.051 12.6831C19.3301 12.4532 19.7089 12.1644 20.1979 11.8384C21.1773 11.1855 22.5896 10.3893 24.5145 9.61939ZM25.3334 18.0674V73.3053C29.1824 71.8905 34.7935 70.6666 42.6667 70.6666C51.4397 70.6666 58.7185 73.5787 65.253 76.193L65.4856 76.286C72.2247 78.9817 78.2106 81.3333 85.3334 81.3333C92.8825 81.3333 97.7047 80.0766 100.514 78.9527C101.43 78.5866 102.139 78.2315 102.667 77.9325V22.6946C98.8176 24.1094 93.2066 25.3333 85.3334 25.3333C76.5604 25.3333 69.2815 22.4212 62.7471 19.8069L62.5145 19.7139C55.7754 17.0182 49.7895 14.6666 42.6667 14.6666C35.1176 14.6666 30.2954 15.9233 27.4856 17.0472C26.5703 17.4133 25.8609 17.7684 25.3334 18.0674Z" />
<path d="M21.3334 76C23.5425 76 25.3334 77.7909 25.3334 80V117.333C25.3334 119.542 23.5425 121.333 21.3334 121.333C19.1242 121.333 17.3334 119.542 17.3334 117.333V80C17.3334 77.7909 19.1242 76 21.3334 76Z" />
</svg>
