<svg viewBox="0 0 128 128" fill="currentColor" xmlns="http://www.w3.org/2000/svg">
<path d="M21.3333 20C19.5652 20 17.8695 20.7024 16.6192 21.9526C15.369 23.2029 14.6666 24.8986 14.6666 26.6667V101.333C14.6666 103.101 15.369 104.797 16.6192 106.047C17.8695 107.298 19.5652 108 21.3333 108H106.667C108.435 108 110.13 107.298 111.381 106.047C112.631 104.797 113.333 103.101 113.333 101.333V42.6667C113.333 40.8986 112.631 39.2029 111.381 37.9526C110.13 36.7024 108.435 36 106.667 36H58.6666C57.3292 36 56.0803 35.3316 55.3384 34.2188L45.8592 20H21.3333ZM10.9624 16.2958C13.7129 13.5452 17.4435 12 21.3333 12H48C49.3374 12 50.5863 12.6684 51.3282 13.7812L60.8074 28H106.667C110.556 28 114.287 29.5452 117.038 32.2958C119.788 35.0463 121.333 38.7768 121.333 42.6667V101.333C121.333 105.223 119.788 108.954 117.038 111.704C114.287 114.455 110.556 116 106.667 116H21.3333C17.4434 116 13.7129 114.455 10.9624 111.704C8.21186 108.954 6.66663 105.223 6.66663 101.333V26.6667C6.66663 22.7768 8.21186 19.0463 10.9624 16.2958Z" />
<path d="M44 74.6666C44 72.4575 45.7909 70.6666 48 70.6666H80C82.2091 70.6666 84 72.4575 84 74.6666C84 76.8758 82.2091 78.6666 80 78.6666H48C45.7909 78.6666 44 76.8758 44 74.6666Z" />
</svg>
