<svg viewBox="0 0 128 128" fill="currentColor" xmlns="http://www.w3.org/2000/svg">
<path d="M12 16C12 13.7909 13.7909 12 16 12H53.3333C55.5425 12 57.3333 13.7909 57.3333 16V53.3333C57.3333 55.5425 55.5425 57.3333 53.3333 57.3333H16C13.7909 57.3333 12 55.5425 12 53.3333V16ZM20 20V49.3333H49.3333V20H20Z" />
<path d="M70.6667 16C70.6667 13.7909 72.4575 12 74.6667 12H112C114.209 12 116 13.7909 116 16V53.3333C116 55.5425 114.209 57.3333 112 57.3333H74.6667C72.4575 57.3333 70.6667 55.5425 70.6667 53.3333V16ZM78.6667 20V49.3333H108V20H78.6667Z" />
<path d="M70.6667 74.6666C70.6667 72.4575 72.4575 70.6666 74.6667 70.6666H112C114.209 70.6666 116 72.4575 116 74.6666V112C116 114.209 114.209 116 112 116H74.6667C72.4575 116 70.6667 114.209 70.6667 112V74.6666ZM78.6667 78.6666V108H108V78.6666H78.6667Z" />
<path d="M12 74.6666C12 72.4575 13.7909 70.6666 16 70.6666H53.3333C55.5425 70.6666 57.3333 72.4575 57.3333 74.6666V112C57.3333 114.209 55.5425 116 53.3333 116H16C13.7909 116 12 114.209 12 112V74.6666ZM20 78.6666V108H49.3333V78.6666H20Z" />
</svg>
