<svg viewBox="0 0 128 128" fill="currentColor" xmlns="http://www.w3.org/2000/svg">
<path d="M38.6667 32C38.6667 29.7909 40.4575 28 42.6667 28H112C114.209 28 116 29.7909 116 32C116 34.2091 114.209 36 112 36H42.6667C40.4575 36 38.6667 34.2091 38.6667 32Z" />
<path d="M38.6667 64C38.6667 61.7909 40.4575 60 42.6667 60H112C114.209 60 116 61.7909 116 64C116 66.2091 114.209 68 112 68H42.6667C40.4575 68 38.6667 66.2091 38.6667 64Z" />
<path d="M38.6667 96C38.6667 93.7909 40.4575 92 42.6667 92H112C114.209 92 116 93.7909 116 96C116 98.2091 114.209 100 112 100H42.6667C40.4575 100 38.6667 98.2091 38.6667 96Z" />
<path d="M12 32C12 29.7909 13.7909 28 16 28H16.0533C18.2625 28 20.0533 29.7909 20.0533 32C20.0533 34.2091 18.2625 36 16.0533 36H16C13.7909 36 12 34.2091 12 32Z" />
<path d="M12 64C12 61.7909 13.7909 60 16 60H16.0533C18.2625 60 20.0533 61.7909 20.0533 64C20.0533 66.2091 18.2625 68 16.0533 68H16C13.7909 68 12 66.2091 12 64Z" />
<path d="M12 96C12 93.7909 13.7909 92 16 92H16.0533C18.2625 92 20.0533 93.7909 20.0533 96C20.0533 98.2091 18.2625 100 16.0533 100H16C13.7909 100 12 98.2091 12 96Z" />
</svg>
