<svg viewBox="0 0 128 128" fill="currentColor" xmlns="http://www.w3.org/2000/svg">
<path d="M12 64C12 61.7909 13.7909 60 16 60H112C114.209 60 116 61.7909 116 64C116 66.2091 114.209 68 112 68H16C13.7909 68 12 66.2091 12 64Z" />
<path d="M12 32C12 29.7909 13.7909 28 16 28H112C114.209 28 116 29.7909 116 32C116 34.2091 114.209 36 112 36H16C13.7909 36 12 34.2091 12 32Z" />
<path d="M12 96C12 93.7909 13.7909 92 16 92H112C114.209 92 116 93.7909 116 96C116 98.2091 114.209 100 112 100H16C13.7909 100 12 98.2091 12 96Z" />
</svg>
