<svg viewBox="0 0 128 128" fill="currentColor" xmlns="http://www.w3.org/2000/svg">
<path d="M56 64C56 59.5817 59.5817 56 64 56C68.4183 56 72 59.5817 72 64C72 68.4183 68.4183 72 64 72C59.5817 72 56 68.4183 56 64Z" />
<path d="M93.3334 64C93.3334 59.5817 96.9151 56 101.333 56C105.752 56 109.333 59.5817 109.333 64C109.333 68.4183 105.752 72 101.333 72C96.9151 72 93.3334 68.4183 93.3334 64Z" />
<path d="M18.6667 64C18.6667 59.5817 22.2484 56 26.6667 56C31.085 56 34.6667 59.5817 34.6667 64C34.6667 68.4183 31.085 72 26.6667 72C22.2484 72 18.6667 68.4183 18.6667 64Z" />
</svg>
