<svg viewBox="0 0 128 128" fill="currentColor" xmlns="http://www.w3.org/2000/svg">
<path d="M56 64C56 59.5817 59.5817 56 64 56C68.4183 56 72 59.5817 72 64C72 68.4183 68.4183 72 64 72C59.5817 72 56 68.4183 56 64Z" />
<path d="M64 30.6666C66.2091 30.6666 68 28.8758 68 26.6666C68 24.4575 66.2091 22.6666 64 22.6666C61.7909 22.6666 60 24.4575 60 26.6666C60 28.8758 61.7909 30.6666 64 30.6666Z" fill="#C4C4C4"/>
<path d="M56 26.6666C56 22.2483 59.5817 18.6666 64 18.6666C68.4183 18.6666 72 22.2483 72 26.6666C72 31.0849 68.4183 34.6666 64 34.6666C59.5817 34.6666 56 31.0849 56 26.6666Z" />
<path d="M56 101.333C56 96.915 59.5817 93.3333 64 93.3333C68.4183 93.3333 72 96.915 72 101.333C72 105.752 68.4183 109.333 64 109.333C59.5817 109.333 56 105.752 56 101.333Z" />
</svg>
