<svg viewBox="0 0 128 128" fill="currentColor" xmlns="http://www.w3.org/2000/svg">
<path d="M58.6667 20C37.3117 20 20 37.3117 20 58.6667C20 80.0217 37.3117 97.3333 58.6667 97.3333C80.0217 97.3333 97.3333 80.0217 97.3333 58.6667C97.3333 37.3117 80.0217 20 58.6667 20ZM12 58.6667C12 32.8934 32.8934 12 58.6667 12C84.44 12 105.333 32.8934 105.333 58.6667C105.333 84.44 84.44 105.333 58.6667 105.333C32.8934 105.333 12 84.44 12 58.6667Z" />
<path d="M85.9716 85.9716C87.5337 84.4095 90.0663 84.4095 91.6284 85.9716L114.828 109.172C116.391 110.734 116.391 113.266 114.828 114.828C113.266 116.391 110.734 116.391 109.172 114.828L85.9716 91.6285C84.4095 90.0664 84.4095 87.5337 85.9716 85.9716Z" />
</svg>
