<svg viewBox="0 0 128 128" fill="currentColor" xmlns="http://www.w3.org/2000/svg">
<path d="M64 52C57.3726 52 52 57.3726 52 64C52 70.6274 57.3726 76 64 76C70.6274 76 76 70.6274 76 64C76 57.3726 70.6274 52 64 52ZM44 64C44 52.9543 52.9543 44 64 44C75.0457 44 84 52.9543 84 64C84 75.0457 75.0457 84 64 84C52.9543 84 44 75.0457 44 64Z" />
<path d="M64 9.33325C62.2319 9.33325 60.5362 10.0356 59.286 11.2859C58.0358 12.5361 57.3334 14.2318 57.3334 15.9999V16.9066L57.3333 16.9225C57.3234 19.4188 56.5837 21.8577 55.2054 23.939C53.8271 26.0203 51.8702 27.6531 49.5758 28.6365C49.1969 28.7988 48.796 28.9014 48.3873 28.9411C46.264 29.7118 43.9692 29.9086 41.7366 29.5038C39.2201 29.0475 36.8979 27.8478 35.0696 26.0594L35.0381 26.0285L34.7183 25.7083C34.0991 25.0885 33.3623 24.5952 32.553 24.2597C31.7437 23.9242 30.8761 23.7515 30 23.7515C29.1239 23.7515 28.2564 23.9242 27.4471 24.2597C26.6378 24.5952 25.9025 25.0869 25.2834 25.7068C24.6635 26.3259 24.1687 27.0643 23.8332 27.8737C23.4977 28.683 23.325 29.5505 23.325 30.4266C23.325 31.3027 23.4977 32.1702 23.8332 32.9795C24.1687 33.7888 24.6604 34.5241 25.2802 35.1433L25.633 35.496C27.4214 37.3243 28.6209 39.6466 29.0772 42.1631C29.526 44.6382 29.2354 47.1896 28.2433 49.4991C27.3486 51.8596 25.7754 53.9038 23.7206 55.3735C21.6316 56.8676 19.1413 57.6988 16.5736 57.7588L16.48 57.7599H16C14.2319 57.7599 12.5362 58.4623 11.286 59.7125C10.0358 60.9628 9.33337 62.6585 9.33337 64.4266C9.33337 66.1947 10.0358 67.8904 11.286 69.1406C12.5362 70.3909 14.2319 71.0933 16 71.0933H16.9227C19.4189 71.1032 21.8578 71.8429 23.9391 73.2212C26.0145 74.5956 27.6439 76.5452 28.6282 78.8312C29.6539 81.1659 29.9589 83.7539 29.5039 86.2634C29.0476 88.7799 27.8479 91.102 26.0595 92.9303L26.0286 92.9619L25.7085 93.2817C25.0886 93.9008 24.5953 94.6377 24.2598 95.447C23.9243 96.2563 23.7516 97.1238 23.7516 97.9999C23.7516 98.876 23.9243 99.7435 24.2598 100.553C24.5953 101.362 25.0871 102.097 25.7069 102.717C26.326 103.336 27.0644 103.831 27.8738 104.167C28.6831 104.502 29.5506 104.675 30.4267 104.675C31.3028 104.675 32.1703 104.502 32.9796 104.167C33.789 103.831 34.5242 103.34 35.1434 102.72L35.4961 102.367C37.3244 100.579 39.6468 99.379 42.1633 98.9227C44.6384 98.474 47.1899 98.7645 49.4994 99.7567C51.8598 100.651 53.904 102.225 55.3736 104.279C56.8677 106.368 57.6989 108.859 57.7589 111.426L57.76 111.52V112C57.76 113.768 58.4624 115.464 59.7127 116.714C60.9629 117.964 62.6586 118.667 64.4267 118.667C66.1948 118.667 67.8905 117.964 69.1408 116.714C70.391 115.464 71.0934 113.768 71.0934 112V111.093L71.0934 111.077C71.1034 108.581 71.843 106.142 73.2214 104.061C74.5955 101.986 76.5447 100.357 78.8302 99.3723C81.1652 98.3462 83.7536 98.041 86.2635 98.4961C88.78 98.9524 91.1021 100.152 92.9304 101.94L92.962 101.971L93.2818 102.291C93.901 102.911 94.6378 103.405 95.4471 103.74C96.2564 104.076 97.1239 104.248 98 104.248C98.8761 104.248 99.7437 104.076 100.553 103.74C101.362 103.405 102.098 102.913 102.717 102.293C103.337 101.674 103.831 100.936 104.167 100.126C104.502 99.3169 104.675 98.4494 104.675 97.5733C104.675 96.6972 104.502 95.8296 104.167 95.0203C103.831 94.211 103.34 93.4757 102.72 92.8566L102.367 92.5038C100.579 90.6755 99.3792 88.3532 98.9229 85.8367C98.4678 83.3268 98.773 80.7384 99.7991 78.4034C100.783 76.1179 102.413 74.1687 104.488 72.7946C106.569 71.4162 109.008 70.6766 111.504 70.6666L111.52 70.6666L112 70.6666C113.768 70.6666 115.464 69.9642 116.714 68.714C117.964 67.4637 118.667 65.768 118.667 63.9999C118.667 62.2318 117.964 60.5361 116.714 59.2859C115.464 58.0356 113.768 57.3333 112 57.3333H111.093L111.077 57.3332C108.581 57.3233 106.142 56.5836 104.061 55.2053C101.98 53.8269 100.347 51.8701 99.3635 49.5756C99.2011 49.1968 99.0986 48.7959 99.0588 48.3872C98.2882 46.2639 98.0914 43.9691 98.4962 41.7365C98.9525 39.22 100.152 36.8978 101.941 35.0695L101.971 35.038L102.292 34.7182C102.911 34.099 103.405 33.3622 103.74 32.5529C104.076 31.7435 104.248 30.876 104.248 29.9999C104.248 29.1238 104.076 28.2563 103.74 27.447C103.405 26.6377 102.913 25.9024 102.293 25.2833C101.674 24.6634 100.936 24.1685 100.126 23.833C99.317 23.4975 98.4495 23.3249 97.5734 23.3249C96.6973 23.3249 95.8298 23.4975 95.0204 23.833C94.2111 24.1685 93.4759 24.6603 92.8567 25.2801L92.5039 25.6329C90.6756 27.4213 88.3533 28.6208 85.8368 29.0771C83.3274 29.5321 80.7394 29.2271 78.4047 28.2014C76.1187 27.2171 74.1691 25.5877 72.7947 23.5123C71.4164 21.4311 70.6767 18.9922 70.6667 16.4959L70.6667 16.4799V15.9999C70.6667 14.2318 69.9643 12.5361 68.7141 11.2859C67.4638 10.0356 65.7681 9.33325 64 9.33325ZM103.467 79.9999L107.126 81.615C106.739 82.4924 106.623 83.4657 106.795 84.4094C106.965 85.3469 107.41 86.2125 108.073 86.896L108.374 87.1966C109.737 88.5587 110.819 90.1763 111.557 91.9568C112.295 93.7373 112.675 95.6458 112.675 97.5733C112.675 99.5007 112.295 101.409 111.557 103.19C110.819 104.97 109.738 106.587 108.375 107.948C107.013 109.311 105.396 110.393 103.616 111.13C101.836 111.868 99.9275 112.248 98 112.248C96.0726 112.248 94.1641 111.868 92.3836 111.13C90.6031 110.392 88.9855 109.31 87.6234 107.947L87.3227 107.646C86.6392 106.983 85.7737 106.538 84.8362 106.368C83.8925 106.197 82.9192 106.312 82.0418 106.699L82.0025 106.717C81.1421 107.085 80.4082 107.698 79.8913 108.478C79.3757 109.257 79.0984 110.169 79.0934 111.103V112C79.0934 115.89 77.5481 119.62 74.7976 122.371C72.0471 125.121 68.3166 126.667 64.4267 126.667C60.5369 126.667 56.8063 125.121 54.0558 122.371C51.3053 119.62 49.76 115.89 49.76 112V111.574C49.73 110.625 49.4192 109.706 48.8666 108.933C48.3063 108.15 47.5233 107.553 46.6193 107.221C46.5402 107.192 46.4621 107.16 46.385 107.126C45.5076 106.739 44.5342 106.623 43.5905 106.794C42.653 106.964 41.7874 107.41 41.1038 108.073L40.8034 108.373C39.4412 109.737 37.8237 110.819 36.0432 111.557C34.2627 112.295 32.3541 112.675 30.4267 112.675C28.4993 112.675 26.5907 112.295 24.8103 111.557C23.0298 110.819 21.4122 109.737 20.05 108.373C18.6879 107.012 17.6072 105.396 16.8696 103.616C16.1316 101.836 15.7516 99.9274 15.7516 97.9999C15.7516 96.0725 16.1316 94.164 16.8696 92.3835C17.6075 90.6036 18.6887 88.9866 20.0516 87.6248L20.3538 87.3226C21.0172 86.6391 21.4623 85.7736 21.6322 84.8361C21.8033 83.8924 21.6878 82.9191 21.3006 82.0416L21.2833 82.0024C20.9145 81.142 20.3024 80.4081 19.5219 79.8912C18.7433 79.3755 17.8311 79.0982 16.8973 79.0933H16C12.1102 79.0933 8.37967 77.548 5.62914 74.7975C2.87861 72.047 1.33337 68.3164 1.33337 64.4266C1.33337 60.5367 2.87861 56.8062 5.62914 54.0557C8.37967 51.3052 12.1102 49.7599 16 49.7599H16.4262C17.3751 49.7299 18.294 49.4191 19.0666 48.8665C19.85 48.3062 20.4468 47.5232 20.7792 46.6192C20.8083 46.5401 20.8399 46.462 20.8739 46.3849C21.2612 45.5074 21.3767 44.5341 21.2056 43.5904C21.0356 42.6529 20.5904 41.7873 19.927 41.1038L19.6265 40.8033C19.626 40.8027 19.627 40.8038 19.6265 40.8033C18.2636 39.4414 17.1808 37.8229 16.443 36.043C15.7049 34.2625 15.325 32.354 15.325 30.4266C15.325 28.4992 15.7049 26.5906 16.443 24.8101C17.1808 23.0303 18.262 21.4133 19.6249 20.0515C20.9868 18.6886 22.6038 17.6073 24.3836 16.8695C26.1641 16.1314 28.0726 15.7515 30 15.7515C31.9275 15.7515 33.836 16.1314 35.6165 16.8695C37.3963 17.6073 39.0133 18.6886 40.3751 20.0515C40.3757 20.052 40.3746 20.051 40.3751 20.0515L40.6772 20.3536C41.3607 21.017 42.2263 21.4621 43.1639 21.6321C44.1076 21.8032 45.0809 21.6877 45.9583 21.3005C46.2829 21.1572 46.6242 21.0582 46.9732 21.0052C47.5973 20.6369 48.1323 20.1305 48.5354 19.5218C49.0511 18.7431 49.3284 17.831 49.3334 16.8972V15.9999C49.3334 12.1101 50.8786 8.37955 53.6291 5.62902C56.3797 2.87849 60.1102 1.33325 64 1.33325C67.8899 1.33325 71.6204 2.87849 74.3709 5.62902C77.1215 8.37955 78.6667 12.1101 78.6667 15.9999V16.4705C78.6717 17.4043 78.949 18.3165 79.4647 19.0951C79.9815 19.8756 80.7153 20.4879 81.5758 20.8567L81.6152 20.8736C82.4926 21.2608 83.4658 21.3766 84.4095 21.2055C85.347 21.0355 86.2126 20.5904 86.8961 19.927L87.1967 19.6264C87.1972 19.6259 87.1962 19.6269 87.1967 19.6264C88.5585 18.2635 90.1771 17.1807 91.9569 16.4429C93.7374 15.7048 95.6459 15.3249 97.5734 15.3249C99.5008 15.3249 101.409 15.7048 103.19 16.4429C104.969 17.1804 106.585 18.2611 107.947 19.6233C109.311 20.9854 110.392 22.603 111.13 24.3835C111.869 26.164 112.248 28.0725 112.248 29.9999C112.248 31.9274 111.869 33.8359 111.13 35.6164C110.393 37.3962 109.311 39.0132 107.948 40.375C107.948 40.3755 107.949 40.3745 107.948 40.375L107.646 40.6772C106.983 41.3607 106.538 42.2263 106.368 43.1638C106.197 44.1075 106.312 45.0808 106.699 45.9582C106.843 46.2827 106.942 46.6241 106.995 46.9731C107.363 47.5972 107.869 48.1322 108.478 48.5353C109.257 49.051 110.169 49.3283 111.103 49.3333H112C115.89 49.3333 119.62 50.8785 122.371 53.629C125.121 56.3796 126.667 60.1101 126.667 63.9999C126.667 67.8898 125.121 71.6203 122.371 74.3708C119.62 77.1214 115.89 78.6666 112 78.6666H111.529C110.596 78.6716 109.683 78.9489 108.905 79.4645C108.124 79.9814 107.512 80.7152 107.143 81.5756L103.467 79.9999Z" />
</svg>
