<svg viewBox="0 0 128 128" fill="currentColor" xmlns="http://www.w3.org/2000/svg">
    <path d="M41.3333 21.3333C41.3333 19.1241 39.5425 17.3333 37.3333 17.3333C35.1242 17.3333 33.3333 19.1241 33.3333 21.3333V97.0097L18.8284 82.5048C17.2663 80.9427 14.7337 80.9427 13.1716 82.5048C11.6095 84.0669 11.6095 86.5996 13.1716 88.1617L34.5049 109.495C34.8884 109.879 35.3304 110.168 35.8022 110.363C36.2138 110.534 36.6601 110.638 37.1275 110.661C37.1957 110.665 37.2643 110.667 37.3333 110.667C38.357 110.667 39.3807 110.276 40.1618 109.495L61.4951 88.1617C63.0572 86.5996 63.0572 84.0669 61.4951 82.5048C59.933 80.9427 57.4003 80.9427 55.8382 82.5048L41.3333 97.0097V21.3333Z" />
    <path d="M92.1978 17.6368C92.6696 17.832 93.1116 18.1213 93.4951 18.5048L114.828 39.8382C116.391 41.4003 116.391 43.9329 114.828 45.495C113.266 47.0571 110.734 47.0571 109.172 45.495L94.6667 30.9901V106.667C94.6667 108.876 92.8758 110.667 90.6667 110.667C88.4575 110.667 86.6667 108.876 86.6667 106.667V30.9901L72.1618 45.495C70.5997 47.0571 68.067 47.0571 66.5049 45.495C64.9428 43.9329 64.9428 41.4003 66.5049 39.8382L87.8382 18.5048C88.2217 18.1213 88.6638 17.832 89.1355 17.6368C89.6072 17.4412 90.1243 17.3333 90.6667 17.3333C91.209 17.3333 91.7262 17.4412 92.1978 17.6368Z" />
</svg>
