<svg viewBox="0 0 128 128" fill="currentColor" xmlns="http://www.w3.org/2000/svg">
<path d="M98.8284 29.1716C100.391 30.7337 100.391 33.2663 98.8284 34.8284L34.8284 98.8284C33.2663 100.391 30.7337 100.391 29.1716 98.8284C27.6095 97.2663 27.6095 94.7337 29.1716 93.1716L93.1716 29.1716C94.7337 27.6095 97.2663 27.6095 98.8284 29.1716Z" />
<path d="M29.1716 29.1716C30.7337 27.6095 33.2663 27.6095 34.8284 29.1716L98.8284 93.1716C100.391 94.7337 100.391 97.2663 98.8284 98.8284C97.2663 100.391 94.7337 100.391 93.1716 98.8284L29.1716 34.8284C27.6095 33.2663 27.6095 30.7337 29.1716 29.1716Z" />
</svg>
